<svg width="352" height="32" viewBox="0 0 352 32" fill="none" xmlns="http://www.w3.org/2000/svg">
<path d="M216 0C212.836 0 209.742 0.938384 207.111 2.69649C204.48 4.45459 202.429 6.95345 201.218 9.87706C200.007 12.8007 199.69 16.0177 200.307 19.1214C200.925 22.2251 202.449 25.0761 204.686 27.3137C206.924 29.5513 209.775 31.0752 212.879 31.6926C215.982 32.3099 219.199 31.9931 222.123 30.7821C225.047 29.5711 227.545 27.5203 229.304 24.8891C231.062 22.2579 232 19.1645 232 16C232 11.7565 230.314 7.68687 227.314 4.68629C224.313 1.68571 220.243 0 216 0V0ZM209.79 18.87C208.887 18.9029 207.997 18.6499 207.246 18.1471C206.496 17.6443 205.923 16.9174 205.61 16.07L207.53 15.27C207.684 15.7384 207.99 16.1421 208.4 16.4173C208.809 16.6925 209.298 16.8237 209.79 16.79C210.257 16.8343 210.727 16.7243 211.126 16.4769C211.525 16.2296 211.832 15.8583 212 15.42L213.9 16.26C213.568 17.0663 212.995 17.7501 212.259 18.2175C211.523 18.6848 210.661 18.9128 209.79 18.87V18.87ZM218.08 23.81H213.92V21.73H218.08V23.81ZM222.32 18.87C221.457 18.9002 220.605 18.6691 219.875 18.207C219.145 17.7449 218.572 17.0733 218.23 16.28L220.12 15.4C220.29 15.8365 220.595 16.207 220.991 16.4572C221.387 16.7074 221.853 16.824 222.32 16.79C222.78 16.8247 223.238 16.7101 223.627 16.4632C224.016 16.2164 224.315 15.8505 224.48 15.42L226.38 16.26C226.051 17.058 225.486 17.736 224.76 18.2027C224.034 18.6694 223.182 18.9023 222.32 18.87V18.87Z" fill="url(#paint0_linear)"/>
<path d="M16 0C12.8355 0 9.74207 0.938384 7.11088 2.69649C4.4797 4.45459 2.42894 6.95345 1.21793 9.87706C0.0069325 12.8007 -0.309921 16.0177 0.307443 19.1214C0.924806 22.2251 2.44866 25.0761 4.6863 27.3137C6.92394 29.5513 9.77487 31.0752 12.8786 31.6926C15.9823 32.3099 19.1993 31.9931 22.1229 30.7821C25.0466 29.5711 27.5454 27.5203 29.3035 24.8891C31.0616 22.2579 32 19.1645 32 16C32 11.7565 30.3143 7.68687 27.3137 4.68629C24.3131 1.68571 20.2435 0 16 0V0ZM10.87 18.81C10.6558 18.9169 10.4194 18.9717 10.18 18.97C9.94049 18.9729 9.7038 18.918 9.49001 18.81C6.07001 17.05 4.92001 14.38 6.24001 12.7C7.56001 11.02 10.18 12.02 10.18 13.7C10.18 12.02 12.82 11.1 14.11 12.7C15.4 14.3 14.28 17.05 10.87 18.81ZM17.93 23.81H14.07V21.88H17.93V23.81ZM22.53 18.81C22.3158 18.9169 22.0794 18.9717 21.84 18.97C21.6005 18.9729 21.3638 18.918 21.15 18.81C17.73 17.05 16.58 14.38 17.91 12.7C19.24 11.02 21.84 12.02 21.84 13.7C21.84 12.02 24.48 11.1 25.77 12.7C27.06 14.3 25.94 17.05 22.53 18.81Z" fill="url(#paint1_linear)"/>
<path fill-rule="evenodd" clip-rule="evenodd" d="M47.1109 29.3035C49.7421 31.0616 52.8355 32 56 32C60.2435 32 64.3131 30.3143 67.3137 27.3137C70.3143 24.3131 72 20.2435 72 16C72 12.8355 71.0616 9.74207 69.3035 7.11088C67.5454 4.4797 65.0466 2.42894 62.1229 1.21793C59.1993 0.00693253 55.9823 -0.309921 52.8786 0.307443C49.7749 0.924806 46.9239 2.44866 44.6863 4.6863C42.4487 6.92394 40.9248 9.77487 40.3074 12.8786C39.6901 15.9823 40.0069 19.1993 41.2179 22.1229C42.4289 25.0466 44.4797 27.5454 47.1109 29.3035ZM58.6621 22.728C57.9561 23.434 56.9985 23.8306 56.0001 23.8306C55.0016 23.8306 54.044 23.434 53.338 22.728C52.632 22.0219 52.2354 21.0644 52.2354 20.0659H59.7648C59.7648 21.0644 59.3681 22.0219 58.6621 22.728ZM47.0777 16.7059H45.1953C45.1953 15.0024 46.2118 11.7742 49.7788 11.7742C53.3459 11.7742 54.3059 15.0118 54.3059 16.7248H52.4235C52.4235 16.4142 52.32 13.6565 49.7788 13.6565C47.2377 13.6565 47.0777 16.5836 47.0777 16.7059ZM57.8071 16.7153H59.6895C59.6989 16.3953 59.8495 13.6659 62.3907 13.6659C64.9318 13.6659 65.0354 16.4236 65.0354 16.7342H66.9177C66.9177 15.0212 65.9577 11.7836 62.3907 11.7836C58.8236 11.7836 57.8071 15.0118 57.8071 16.7153Z" fill="url(#paint2_linear)"/>
<path d="M96 0C92.8355 0 89.7421 0.938384 87.1109 2.69649C84.4797 4.45459 82.4289 6.95345 81.2179 9.87706C80.0069 12.8007 79.6901 16.0177 80.3074 19.1214C80.9248 22.2251 82.4487 25.0761 84.6863 27.3137C86.9239 29.5513 89.7749 31.0752 92.8786 31.6926C95.9823 32.3099 99.1993 31.9931 102.123 30.7821C105.047 29.5711 107.545 27.5203 109.304 24.8891C111.062 22.2579 112 19.1645 112 16C112 11.7565 110.314 7.68687 107.314 4.68629C104.313 1.68571 100.243 0 96 0V0ZM92.37 18.44H88.44V14.51H92.37V18.44ZM90.37 10.6C89.8389 10.5635 89.3062 10.643 88.8089 10.8329C88.3116 11.0229 87.8615 11.3187 87.49 11.7L85.92 10.31C86.4832 9.70668 87.1716 9.23384 87.9369 8.92463C88.7021 8.61542 89.5257 8.47732 90.35 8.52C91.2177 8.46306 92.0864 8.61495 92.8833 8.96293C93.6802 9.31091 94.382 9.84486 94.93 10.52L93.28 11.78C92.9203 11.3649 92.467 11.0413 91.9575 10.8361C91.448 10.6309 90.897 10.55 90.35 10.6H90.37ZM96 25.35C95.6044 25.35 95.2178 25.2327 94.8889 25.0129C94.56 24.7932 94.3036 24.4808 94.1522 24.1154C94.0009 23.7499 93.9613 23.3478 94.0384 22.9598C94.1156 22.5719 94.3061 22.2155 94.5858 21.9358C94.8655 21.6561 95.2219 21.4656 95.6098 21.3884C95.9978 21.3113 96.3999 21.3509 96.7654 21.5022C97.1308 21.6536 97.4432 21.91 97.6629 22.2389C97.8827 22.5678 98 22.9544 98 23.35C98 23.8804 97.7893 24.3891 97.4142 24.7642C97.0391 25.1393 96.5304 25.35 96 25.35V25.35ZM103.47 18.44H99.54V14.51H103.47V18.44ZM104.47 11.82C104.112 11.3975 103.659 11.0663 103.148 10.8542C102.636 10.642 102.082 10.5548 101.53 10.6C101 10.5643 100.47 10.6442 99.9739 10.8341C99.4784 11.0241 99.03 11.3195 98.66 11.7L97.11 10.31C97.6717 9.70746 98.3584 9.23504 99.1219 8.92583C99.8854 8.61663 100.707 8.47811 101.53 8.52C102.399 8.46226 103.27 8.61373 104.068 8.96172C104.867 9.3097 105.57 9.84406 106.12 10.52L104.47 11.82Z" fill="url(#paint3_linear)"/>
<path d="M336 0C332.836 0 329.742 0.938384 327.111 2.69649C324.48 4.45459 322.429 6.95345 321.218 9.87706C320.007 12.8007 319.69 16.0177 320.307 19.1214C320.925 22.2251 322.449 25.0761 324.686 27.3137C326.924 29.5513 329.775 31.0752 332.879 31.6926C335.982 32.3099 339.199 31.9931 342.123 30.7821C345.047 29.5711 347.545 27.5203 349.304 24.8891C351.062 22.2579 352 19.1645 352 16C352 11.7565 350.314 7.68687 347.314 4.68629C344.313 1.68571 340.243 0 336 0V0ZM326.77 12.77L333.58 11L334.12 13L327.31 14.78L326.77 12.77ZM332.41 19.77H328.48V15.85H332.41V19.77ZM339.52 24.41H332.52V22.34H339.52V24.41ZM343.52 19.77H339.58V15.85H343.51L343.52 19.77ZM344.52 11.7C344.164 11.2776 343.713 10.9465 343.203 10.7342C342.693 10.522 342.14 10.4348 341.59 10.48C341.06 10.4442 340.528 10.5231 340.031 10.7112C339.534 10.8992 339.084 11.1922 338.71 11.57L337.16 10.2C337.723 9.59668 338.412 9.12384 339.177 8.81463C339.942 8.50542 340.766 8.36732 341.59 8.41C342.459 8.35309 343.329 8.50494 344.128 8.85287C344.926 9.20079 345.63 9.7347 346.18 10.41L344.52 11.7Z" fill="url(#paint4_linear)"/>
<path d="M296 0C292.836 0 289.742 0.938384 287.111 2.69649C284.48 4.45459 282.429 6.95345 281.218 9.87706C280.007 12.8007 279.69 16.0177 280.307 19.1214C280.925 22.2251 282.449 25.0761 284.686 27.3137C286.924 29.5513 289.775 31.0752 292.879 31.6926C295.982 32.3099 299.199 31.9931 302.123 30.7821C305.047 29.5711 307.545 27.5203 309.304 24.8891C311.062 22.2579 312 19.1645 312 16C312 11.7565 310.314 7.68687 307.314 4.68629C304.313 1.68571 300.243 0 296 0V0ZM286.92 8.61H294V10.68H287L286.92 8.61ZM292.41 17.91H288.48V14H292.41V17.91ZM299.48 23.59H292.48V21.51H299.48V23.59ZM303.48 17.91H299.58V14H303.51L303.48 17.91ZM305.04 10.68H298V8.61H305.05L305.04 10.68Z" fill="url(#paint5_linear)"/>
<path d="M136 0C132.836 0 129.742 0.938383 127.111 2.69649C124.48 4.45459 122.429 6.95345 121.218 9.87706C120.007 12.8007 119.69 16.0177 120.307 19.1214C120.925 22.2251 122.449 25.0761 124.686 27.3137C126.924 29.5513 129.775 31.0752 132.879 31.6926C135.982 32.3099 139.199 31.9931 142.123 30.7821C145.047 29.5711 147.545 27.5203 149.304 24.8891C151.062 22.2579 152 19.1645 152 16C151.993 11.7588 150.304 7.69346 147.306 4.69448C144.307 1.69551 140.241 0.00741684 136 0V0ZM126.48 11.315L127.359 9.44477L134.401 12.7177L133.531 14.588L132.409 14.0643V17.9077H128.482V14.0269H132.222L126.48 11.315ZM140.124 23.4716C138.833 22.8574 137.421 22.5387 135.991 22.5387C134.561 22.5387 133.149 22.8574 131.857 23.4716L130.922 21.6014H130.988C132.558 20.8536 134.275 20.4656 136.014 20.4656C137.753 20.4656 139.47 20.8536 141.04 21.6014L140.124 23.4716ZM143.518 14.0269V17.9638H139.582V14.0736L138.469 14.5973L137.59 12.7271L144.631 9.45412L145.51 11.3244L139.787 14.0269H143.518Z" fill="url(#paint6_linear)"/>
<path d="M176 0C172.836 0 169.742 0.938384 167.111 2.69649C164.48 4.45459 162.429 6.95345 161.218 9.87706C160.007 12.8007 159.69 16.0177 160.307 19.1214C160.925 22.2251 162.449 25.0761 164.686 27.3137C166.924 29.5513 169.775 31.0752 172.879 31.6926C175.982 32.3099 179.199 31.9931 182.123 30.7821C185.047 29.5711 187.545 27.5203 189.304 24.8891C191.062 22.2579 192 19.1645 192 16C192 11.7565 190.314 7.68687 187.314 4.68629C184.313 1.68571 180.243 0 176 0V0ZM169.7 18.6C169.456 18.5935 169.217 18.532 169 18.42C165.28 16.53 164 13.64 165.47 11.84C166.94 10.04 169.7 11.11 169.7 12.91C169.7 11.11 172.56 10.11 173.94 11.84C175.32 13.57 174.13 16.53 170.45 18.42C170.218 18.5391 169.961 18.6009 169.7 18.6V18.6ZM176 23.78C175.472 23.7788 174.95 23.667 174.468 23.4517C173.985 23.2364 173.553 22.9224 173.2 22.53C173.772 23.6052 174.209 24.7472 174.5 25.93C174.47 26.2899 174.306 26.6254 174.04 26.8699C173.774 27.1144 173.426 27.2501 173.065 27.2501C172.704 27.2501 172.356 27.1144 172.09 26.8699C171.824 26.6254 171.66 26.2899 171.63 25.93C171.946 24.6779 172.406 23.4665 173 22.32C172.492 21.6545 172.224 20.8369 172.24 20H179.76C179.763 20.4955 179.667 20.9865 179.48 21.445C179.292 21.9035 179.015 22.3204 178.666 22.6717C178.316 23.0229 177.901 23.3017 177.444 23.4919C176.986 23.6821 176.495 23.78 176 23.78ZM183 18.42C182.768 18.5381 182.511 18.5997 182.25 18.6C181.992 18.6008 181.738 18.5391 181.51 18.42C177.83 16.53 176.59 13.64 178.01 11.84C179.43 10.04 182.25 11.11 182.25 12.91C182.25 11.11 185.1 10.11 186.49 11.84C187.88 13.57 186.7 16.53 183 18.42Z" fill="url(#paint7_linear)"/>
<path d="M256 0C252.836 0 249.742 0.938384 247.111 2.69649C244.48 4.45459 242.429 6.95345 241.218 9.87706C240.007 12.8007 239.69 16.0177 240.307 19.1214C240.925 22.2251 242.449 25.0761 244.686 27.3137C246.924 29.5513 249.775 31.0752 252.879 31.6926C255.982 32.3099 259.199 31.9931 262.123 30.7821C265.047 29.5711 267.545 27.5203 269.304 24.8891C271.062 22.2579 272 19.1645 272 16C272 11.7565 270.314 7.68687 267.314 4.68629C264.313 1.68571 260.243 0 256 0V0ZM250.76 21.38H248.68V14.84H246V12.77H253.46V14.84H250.76V21.38ZM256 26.62C255.482 26.62 254.975 26.4663 254.544 26.1784C254.114 25.8906 253.778 25.4814 253.579 25.0026C253.381 24.5239 253.329 23.9971 253.43 23.4889C253.531 22.9806 253.781 22.5138 254.147 22.1474C254.514 21.781 254.981 21.5314 255.489 21.4303C255.997 21.3292 256.524 21.3811 257.003 21.5794C257.481 21.7777 257.891 22.1136 258.178 22.5444C258.466 22.9753 258.62 23.4818 258.62 24C258.62 24.6949 258.344 25.3613 257.853 25.8526C257.361 26.344 256.695 26.62 256 26.62V26.62ZM266 14.84H263.3V21.38H261.27V14.84H258.57V12.77H266V14.84Z" fill="url(#paint8_linear)"/>
<defs>
<linearGradient id="paint0_linear" x1="200" y1="32" x2="232" y2="4.20958e-07" gradientUnits="userSpaceOnUse">
<stop stop-color="#AB2FCA"/>
<stop offset="1" stop-color="#71CCFF"/>
</linearGradient>
<linearGradient id="paint1_linear" x1="4.00001" y1="28" x2="22" y2="10" gradientUnits="userSpaceOnUse">
<stop stop-color="#E81099"/>
<stop offset="1" stop-color="#FF99C4"/>
</linearGradient>
<linearGradient id="paint2_linear" x1="67" y1="5" x2="44.5" y2="27.5" gradientUnits="userSpaceOnUse">
<stop stop-color="#F1A101"/>
<stop offset="1" stop-color="#F3E544"/>
</linearGradient>
<linearGradient id="paint3_linear" x1="107.5" y1="4.5" x2="84.5" y2="27.5" gradientUnits="userSpaceOnUse">
<stop stop-color="#EB6B0E"/>
<stop offset="1" stop-color="#F2E877"/>
</linearGradient>
<linearGradient id="paint4_linear" x1="323.5" y1="28.5" x2="347" y2="5.00001" gradientUnits="userSpaceOnUse">
<stop stop-color="#1292DE"/>
<stop offset="1" stop-color="#AAD2F5"/>
</linearGradient>
<linearGradient id="paint5_linear" x1="284" y1="28" x2="307.5" y2="4.5" gradientUnits="userSpaceOnUse">
<stop stop-color="#73A9DB"/>
<stop offset="0.9375" stop-color="#D6D6D6"/>
</linearGradient>
<linearGradient id="paint6_linear" x1="152" y1="9.53674e-07" x2="120" y2="32" gradientUnits="userSpaceOnUse">
<stop stop-color="#FF0000"/>
<stop offset="1" stop-color="#F9BD86"/>
</linearGradient>
<linearGradient id="paint7_linear" x1="164.5" y1="27.5" x2="187.5" y2="4.5" gradientUnits="userSpaceOnUse">
<stop stop-color="#C72E2E"/>
<stop offset="1" stop-color="#FF6FD6"/>
</linearGradient>
<linearGradient id="paint8_linear" x1="240" y1="32" x2="272" y2="4.20958e-07" gradientUnits="userSpaceOnUse">
<stop stop-color="#7C2FCA"/>
<stop offset="1" stop-color="#58C3FF"/>
</linearGradient>
</defs>
</svg>
