<svg width="110" height="24" viewBox="0 0 110 24" fill="none" xmlns="http://www.w3.org/2000/svg">
<path d="M5.11122 6.40158V17.6368L0 24H30.7087C32.4059 24 34.0338 23.326 35.2342 22.1261C36.4346 20.9262 37.1094 19.2987 37.1102 17.6014V6.40158C37.1102 4.70377 36.4358 3.07551 35.2352 1.87498C34.0347 0.674452 32.4065 2.72608e-06 30.7087 2.72608e-06H11.5157C10.6747 -0.000773575 9.84179 0.164257 9.0646 0.485655C8.28741 0.807053 7.58121 1.27851 6.98637 1.87307C6.39154 2.46763 5.91976 3.17362 5.598 3.95066C5.27624 4.7277 5.11083 5.56055 5.11122 6.40158Z" fill="#F21566"/>
<path opacity="0.72" d="M29.2916 13.0896C31.0594 13.0896 32.4924 11.6565 32.4924 9.88878C32.4924 8.12103 31.0594 6.68799 29.2916 6.68799C27.5239 6.68799 26.0908 8.12103 26.0908 9.88878C26.0908 11.6565 27.5239 13.0896 29.2916 13.0896Z" fill="white"/>
<path opacity="0.72" d="M24.3132 14.1113C24.3132 14.9602 23.976 15.7744 23.3757 16.3746C22.7754 16.9749 21.9613 17.3121 21.1124 17.3121C20.2635 17.3121 19.4494 16.9749 18.8491 16.3746C18.2488 15.7744 17.9116 14.9602 17.9116 14.1113H24.3132Z" fill="white"/>
<path opacity="0.72" d="M12.9332 13.0896C14.701 13.0896 16.134 11.6565 16.134 9.88878C16.134 8.12103 14.701 6.68799 12.9332 6.68799C11.1655 6.68799 9.73242 8.12103 9.73242 9.88878C9.73242 11.6565 11.1655 13.0896 12.9332 13.0896Z" fill="white"/>
<path d="M44.8818 13.0985C44.8818 9.5552 46.7214 7.30225 50.0639 7.30225C52.308 7.30225 53.8523 8.38295 54.4931 10.2019L51.9684 11.3003C51.8918 10.8575 51.6558 10.4581 51.305 10.1775C50.9541 9.89678 50.5127 9.75421 50.0639 9.77666C48.7942 9.77666 48.1387 10.6891 48.1387 12.0828V14.1497C48.1387 15.5463 48.7942 16.4351 50.0639 16.4351C51.3336 16.4351 51.8208 15.6733 52.1308 14.7845L54.5639 15.8416C53.8257 17.9587 52.2371 18.9095 50.058 18.9095C46.7332 18.9184 44.8818 16.6536 44.8818 13.0985Z" fill="#343742"/>
<path d="M56.5303 3.00586H59.6602V9.44877H59.7872C60.1917 8.26767 61.1218 7.30212 62.8935 7.30212C65.1553 7.30212 66.3629 8.91137 66.3629 11.7047V18.6643H63.2153V11.9557C63.2153 10.5383 62.8137 9.84149 61.671 9.84149C60.6553 9.84149 59.6602 10.37 59.6602 11.4714V18.6643H56.5303V3.00586Z" fill="#343742"/>
<path d="M68.8877 4.82772V4.36119C68.8877 3.47536 69.4369 2.81689 70.7066 2.81689C71.9763 2.81689 72.5255 3.47241 72.5255 4.36119V4.82772C72.5255 5.71355 71.9763 6.37201 70.7066 6.37201C69.4369 6.37201 68.8877 5.7165 68.8877 4.82772ZM69.1416 7.55607H72.2715V18.6643H69.1416V7.55607Z" fill="#343742"/>
<path d="M75.1919 18.6642V7.55594H78.3248V9.44866H78.4517C78.6348 8.80816 79.0291 8.24838 79.5705 7.86028C80.1119 7.47218 80.7687 7.27855 81.434 7.31086C82.1304 7.27651 82.8177 7.47992 83.3832 7.8877C83.9488 8.29547 84.3589 8.88339 84.5462 9.55496H84.6082C85.0098 8.30594 86.3001 7.31086 87.995 7.31086C90.1299 7.31086 91.3169 8.92011 91.3169 11.7134V18.6642H88.184V11.9555C88.184 10.5176 87.6968 9.84138 86.6604 9.84138C85.7303 9.84138 84.8208 10.3699 84.8208 11.4713V18.6642H81.6879V11.9555C81.6879 10.5176 81.1801 9.84138 80.1643 9.84138C79.2549 9.84138 78.3248 10.3699 78.3248 11.4713V18.6642H75.1919Z" fill="#343742"/>
<path d="M93.8564 4.82772V4.36119C93.8564 3.47536 94.4057 2.81689 95.6754 2.81689C96.945 2.81689 97.4943 3.47241 97.4943 4.36119V4.82772C97.4943 5.71355 96.945 6.37201 95.6754 6.37201C94.4057 6.37201 93.8564 5.7165 93.8564 4.82772ZM94.1104 7.55607H97.2403V18.6643H94.1104V7.55607Z" fill="#343742"/>
<path d="M99.4634 13.0985C99.4634 9.52272 101.409 7.30225 104.669 7.30225C107.929 7.30225 109.872 9.52272 109.872 13.0985C109.872 16.6743 107.926 18.9184 104.669 18.9184C101.412 18.9184 99.4634 16.6743 99.4634 13.0985ZM106.615 14.2412V11.9794C106.615 10.5828 105.894 9.77666 104.669 9.77666C103.444 9.77666 102.72 10.5828 102.72 11.9794V14.2412C102.72 15.6379 103.441 16.444 104.669 16.444C105.897 16.444 106.615 15.6497 106.615 14.2412Z" fill="#343742"/>
</svg>
