<svg width="392" height="148" viewBox="0 0 392 148" fill="none" xmlns="http://www.w3.org/2000/svg">
<path fill-rule="evenodd" clip-rule="evenodd" d="M32.8928 11.1971C33.5995 9.60095 36.1408 9.60096 36.8476 11.1971L38.1635 14.1692C38.1809 14.2086 38.2219 14.2357 38.2692 14.2393L41.7918 14.5045C43.6428 14.644 44.4157 16.6788 43.0385 17.787L40.2653 20.0186C40.2319 20.0455 40.2173 20.0863 40.2272 20.1254L41.0583 23.3984C41.4774 25.0487 39.4321 26.3188 37.833 25.4013L34.938 23.7402C34.8967 23.7165 34.8437 23.7165 34.8024 23.7402L31.9073 25.4013C30.3083 26.3188 28.263 25.0487 28.682 23.3984L29.5131 20.1254C29.5231 20.0863 29.5085 20.0455 29.4751 20.0186L26.7019 17.787C25.3247 16.6788 26.0976 14.644 27.9486 14.5045L31.4711 14.2393C31.5185 14.2357 31.5595 14.2086 31.5769 14.1692L32.8928 11.1971ZM34.797 11.7947C34.7869 11.8005 34.7698 11.8122 34.7539 11.8482L33.4379 14.8203C33.142 15.4887 32.4452 15.9501 31.64 16.0107L28.1174 16.276C28.0772 16.279 28.0595 16.2894 28.0494 16.2968C28.0353 16.3071 28.0194 16.3252 28.0096 16.3512C27.9997 16.3771 28 16.4001 28.0042 16.4159C28.0072 16.4272 28.0142 16.445 28.0441 16.4691L30.8173 18.7007C31.3857 19.158 31.6329 19.8521 31.464 20.5169L30.6329 23.7899C30.6236 23.8266 30.63 23.8447 30.6348 23.855C30.6418 23.8698 30.6571 23.8891 30.6833 23.9054C30.7095 23.9217 30.7351 23.9278 30.7533 23.9285C30.7657 23.929 30.7871 23.9281 30.8227 23.9077L33.7177 22.2466C34.4193 21.844 35.3211 21.844 36.0226 22.2466L38.9177 23.9077C38.9533 23.9281 38.9746 23.929 38.9871 23.9285C39.0052 23.9278 39.0309 23.9217 39.0571 23.9054C39.0833 23.8891 39.0986 23.8698 39.1056 23.855C39.1104 23.8447 39.1167 23.8266 39.1074 23.7899L38.2763 20.5169C38.1075 19.8521 38.3547 19.158 38.923 18.7007L41.6963 16.4691C41.7262 16.445 41.7332 16.4272 41.7362 16.4159C41.7404 16.4001 41.7407 16.3771 41.7308 16.3512C41.721 16.3252 41.7051 16.3071 41.691 16.2968C41.6809 16.2894 41.6632 16.279 41.6229 16.276L38.1004 16.0107C37.2952 15.9501 36.5984 15.4887 36.3024 14.8203L34.9865 11.8482C34.9705 11.8122 34.9535 11.8005 34.9434 11.7947C34.9282 11.786 34.9029 11.7778 34.8702 11.7778C34.8375 11.7778 34.8122 11.786 34.797 11.7947Z" fill="#767E93"/>
<path d="M32.8928 39.1971C33.5995 37.6009 36.1408 37.601 36.8476 39.1971L38.1635 42.1692C38.1809 42.2086 38.2219 42.2357 38.2692 42.2393L41.7918 42.5045C43.6428 42.644 44.4157 44.6788 43.0385 45.787L40.2653 48.0186C40.2319 48.0455 40.2173 48.0863 40.2272 48.1254L41.0583 51.3984C41.4774 53.0487 39.4321 54.3188 37.833 53.4013L34.938 51.7402C34.8967 51.7165 34.8437 51.7165 34.8024 51.7402L31.9073 53.4013C30.3083 54.3188 28.263 53.0487 28.682 51.3984L29.5131 48.1254C29.5231 48.0863 29.5085 48.0455 29.4751 48.0186L26.7019 45.787C25.3247 44.6788 26.0976 42.644 27.9486 42.5045L31.4711 42.2393C31.5185 42.2357 31.5595 42.2086 31.5769 42.1692L32.8928 39.1971Z" fill="#4828E8"/>
<path fill-rule="evenodd" clip-rule="evenodd" d="M56 8.00005C53.7908 8.00006 52 9.79092 52 12.0001V24V24.0001C52 26.2092 53.7909 28 56 28H68V26H66V22H68V20V8L56 8.00005ZM64 22H56C54.8954 22 54 22.8954 54 24V24.0001C54 25.1046 54.8954 26 56 26H64V22ZM56 20C55.2714 20 54.5883 20.1948 54 20.5351V12.0001C54 10.8955 54.8954 10.0001 56 10.0001L66 10V20H56ZM62 14C62 14.783 61.5501 15.4609 60.8947 15.7892L62 17.9999H58L59.1053 15.7892C58.4499 15.4609 58 14.783 58 14C58 12.8954 58.8954 12 60 12C61.1046 12 62 12.8954 62 14Z" fill="#767E93"/>
<path fill-rule="evenodd" clip-rule="evenodd" d="M52 40.0001C52 37.7909 53.7908 36.0001 56 36.0001L68 36V50H66V54H68V56H56C53.7909 56 52 54.2092 52 52.0001V40.0001ZM64 54V50H56C54.8954 50 54 50.8954 54 52C54 53.1045 54.8954 54 56 54H64ZM60.8947 43.7892C61.5501 43.4609 62 42.783 62 42C62 40.8954 61.1046 40 60 40C58.8954 40 58 40.8954 58 42C58 42.783 58.4499 43.4609 59.1053 43.7892L58 45.9999H62L60.8947 43.7892Z" fill="#4828E8"/>
<path fill-rule="evenodd" clip-rule="evenodd" d="M4.9788 41.2665C4.31653 42.0815 2.83678 44.3636 2.2159 46.9718C1.43981 50.232 2.96095 52.6771 3.55079 53.4608C4.14062 54.2445 6.06533 56 9.91477 56C13.7596 56 15.4971 54.2487 16.276 53.4636L16.2788 53.4608C17.0563 52.6771 20.0465 48.2892 15.6748 43.837C12.8891 41 11.4078 38.5 10.9127 36C8.95052 37.7172 6.95149 40 5.96119 44C5.59324 43.837 4.97089 42.5 4.9788 41.2665ZM9.92249 52C10.9128 52 11.9031 51 11.9031 50C11.9031 47 9.92249 45 9.92249 45C9.92249 45 7.94189 47 7.94189 50C7.94189 51 8.93219 52 9.92249 52Z" fill="#4828E8"/>
<path fill-rule="evenodd" clip-rule="evenodd" d="M6.28777 14.8495C6.16951 15.2166 6.0603 15.5997 5.96119 16C5.88369 15.9657 5.79491 15.8792 5.7031 15.7527C5.35904 15.2784 4.97256 14.2402 4.9788 13.2665C4.8423 13.4345 4.67107 13.6648 4.47978 13.9474C4.16718 14.4094 3.80102 15.0111 3.44538 15.7089C2.96284 16.6558 2.49967 17.7798 2.2159 18.9718C1.43981 22.232 2.96095 24.6771 3.55079 25.4608C4.14062 26.2445 6.06533 28 9.91477 28C13.7596 28 15.4971 26.2487 16.276 25.4636L16.2788 25.4608C17.0563 24.6771 20.0465 20.2892 15.6748 15.837C13.6698 13.7951 12.3406 11.9278 11.5684 10.1094C11.2677 9.40132 11.0515 8.70066 10.9127 8C10.3575 8.48591 9.79928 9.01711 9.26184 9.61969C8.42002 10.5635 7.62908 11.6825 6.98006 13.0769C6.94904 13.1435 6.91835 13.2108 6.88799 13.2787C6.72336 13.647 6.56854 14.034 6.42514 14.4417C6.37811 14.5754 6.3323 14.7113 6.28777 14.8495ZM4.16153 19.4349C4.31263 18.8002 4.52585 18.1835 4.76587 17.6108C4.88155 17.6914 5.00982 17.766 5.15109 17.8286L7.32989 18.7938L7.90258 16.4806C8.40567 14.4486 9.19486 12.9383 10.1146 11.7267C11.035 13.5593 12.4118 15.3685 14.2478 17.2383C15.9715 18.9937 16.1296 20.5526 15.9361 21.6888C15.8311 22.3058 15.6087 22.8582 15.37 23.2973C15.2518 23.5149 15.1346 23.6951 15.036 23.8311C14.9869 23.8989 14.9445 23.9527 14.9115 23.9924C14.8951 24.012 14.8819 24.0271 14.8723 24.0377C14.8639 24.0471 14.8594 24.0518 14.8589 24.0523C14.8588 24.0523 14.8588 24.0524 14.8588 24.0523L14.8562 24.055L14.8562 24.055C14.493 24.4211 14.0401 24.8717 13.3093 25.2586C12.5895 25.6397 11.5158 26 9.91477 26C6.7384 26 5.38849 24.5766 5.14877 24.2581C4.71345 23.6797 3.58617 21.8519 4.16153 19.4349ZM7.32484 14.5823C7.32456 14.5819 7.32421 14.5814 7.32377 14.5808L7.32553 14.5833C7.32554 14.5833 7.32531 14.583 7.32484 14.5823ZM9.92249 24C10.9128 24 11.9031 23 11.9031 22C11.9031 19 9.92249 17 9.92249 17C9.92249 17 7.94189 19 7.94189 22C7.94189 23 8.93219 24 9.92249 24Z" fill="#767E93"/>
<path fill-rule="evenodd" clip-rule="evenodd" d="M32.8928 67.1971C33.5995 65.6009 36.1408 65.601 36.8476 67.1971L38.1635 70.1692C38.1809 70.2086 38.2219 70.2357 38.2692 70.2393L41.7918 70.5045C43.6428 70.644 44.4157 72.6788 43.0385 73.787L40.2653 76.0186C40.2319 76.0455 40.2173 76.0863 40.2272 76.1254L41.0583 79.3984C41.4774 81.0487 39.4321 82.3188 37.833 81.4013L34.938 79.7402C34.8967 79.7165 34.8437 79.7165 34.8024 79.7402L31.9073 81.4013C30.3083 82.3188 28.263 81.0487 28.682 79.3984L29.5131 76.1254C29.5231 76.0863 29.5085 76.0455 29.4751 76.0186L26.7019 73.787C25.3247 72.6788 26.0976 70.644 27.9486 70.5045L31.4711 70.2393C31.5185 70.2357 31.5595 70.2086 31.5769 70.1692L32.8928 67.1971ZM34.797 67.7947C34.7869 67.8005 34.7698 67.8122 34.7539 67.8482L33.4379 70.8203C33.142 71.4887 32.4452 71.9501 31.64 72.0107L28.1174 72.276C28.0772 72.279 28.0595 72.2894 28.0494 72.2968C28.0353 72.3071 28.0194 72.3252 28.0096 72.3512C27.9997 72.3771 28 72.4001 28.0042 72.4159C28.0072 72.4272 28.0142 72.445 28.0441 72.4691L30.8173 74.7007C31.3857 75.158 31.6329 75.8521 31.464 76.5169L30.6329 79.7899C30.6236 79.8266 30.63 79.8447 30.6348 79.855C30.6418 79.8698 30.6571 79.8891 30.6833 79.9054C30.7095 79.9217 30.7351 79.9278 30.7533 79.9285C30.7657 79.929 30.7871 79.9281 30.8227 79.9077L33.7177 78.2466C34.4193 77.844 35.3211 77.844 36.0226 78.2466L38.9177 79.9077C38.9533 79.9281 38.9746 79.929 38.9871 79.9285C39.0052 79.9278 39.0309 79.9217 39.0571 79.9054C39.0833 79.8891 39.0986 79.8698 39.1056 79.855C39.1104 79.8447 39.1167 79.8266 39.1074 79.7899L38.2763 76.5169C38.1075 75.8521 38.3547 75.158 38.923 74.7007L41.6963 72.4691C41.7262 72.445 41.7332 72.4272 41.7362 72.4159C41.7404 72.4001 41.7407 72.3771 41.7308 72.3512C41.721 72.3252 41.7051 72.3071 41.691 72.2968C41.6809 72.2894 41.6632 72.279 41.6229 72.276L38.1004 72.0107C37.2952 71.9501 36.5984 71.4887 36.3024 70.8203L34.9865 67.8482C34.9705 67.8122 34.9535 67.8005 34.9434 67.7947C34.9282 67.786 34.9029 67.7778 34.8702 67.7778C34.8375 67.7778 34.8122 67.786 34.797 67.7947Z" fill="#B2B6C2"/>
<path fill-rule="evenodd" clip-rule="evenodd" d="M56 64.0001C53.7908 64.0001 52 65.7909 52 68.0001V80V80.0001C52 82.2092 53.7909 84 56 84H68V82H66V78H68V76V64L56 64.0001ZM64 78H56C54.8954 78 54 78.8954 54 80V80.0001C54 81.1046 54.8954 82 56 82H64V78ZM56 76C55.2714 76 54.5883 76.1948 54 76.5351V68.0001C54 66.8955 54.8954 66.0001 56 66.0001L66 66V76H56ZM62 70C62 70.783 61.5501 71.4609 60.8947 71.7892L62 73.9999H58L59.1053 71.7892C58.4499 71.4609 58 70.783 58 70C58 68.8954 58.8954 68 60 68C61.1046 68 62 68.8954 62 70Z" fill="#B2B6C2"/>
<path fill-rule="evenodd" clip-rule="evenodd" d="M6.28777 70.8495C6.16951 71.2166 6.0603 71.5997 5.96119 72C5.88369 71.9657 5.79491 71.8792 5.7031 71.7527C5.35904 71.2784 4.97256 70.2402 4.9788 69.2665C4.8423 69.4345 4.67107 69.6648 4.47978 69.9474C4.16718 70.4094 3.80102 71.0111 3.44538 71.7089C2.96284 72.6558 2.49967 73.7798 2.2159 74.9718C1.43981 78.232 2.96095 80.6771 3.55079 81.4608C4.14062 82.2445 6.06533 84 9.91477 84C13.7596 84 15.4971 82.2487 16.276 81.4636L16.2788 81.4608C17.0563 80.6771 20.0465 76.2892 15.6748 71.837C13.6698 69.7951 12.3406 67.9278 11.5684 66.1094C11.2677 65.4013 11.0515 64.7007 10.9127 64C10.3575 64.4859 9.79928 65.0171 9.26184 65.6197C8.42002 66.5635 7.62908 67.6825 6.98006 69.0769C6.94904 69.1435 6.91835 69.2108 6.88799 69.2787C6.72336 69.647 6.56854 70.034 6.42514 70.4417C6.37811 70.5754 6.3323 70.7113 6.28777 70.8495ZM4.16153 75.4349C4.31263 74.8002 4.52585 74.1835 4.76587 73.6108C4.88155 73.6914 5.00982 73.766 5.15109 73.8286L7.32989 74.7938L7.90258 72.4806C8.40567 70.4486 9.19486 68.9383 10.1146 67.7267C11.035 69.5593 12.4118 71.3685 14.2478 73.2383C15.9715 74.9937 16.1296 76.5526 15.9361 77.6888C15.8311 78.3058 15.6087 78.8582 15.37 79.2973C15.2518 79.5149 15.1346 79.6951 15.036 79.8311C14.9869 79.8989 14.9445 79.9527 14.9115 79.9924C14.8951 80.012 14.8819 80.0271 14.8723 80.0377C14.8639 80.0471 14.8594 80.0518 14.8589 80.0523C14.8588 80.0523 14.8588 80.0524 14.8588 80.0523L14.8562 80.055L14.8562 80.055C14.493 80.4211 14.0401 80.8717 13.3093 81.2586C12.5895 81.6397 11.5158 82 9.91477 82C6.7384 82 5.38849 80.5766 5.14877 80.2581C4.71345 79.6797 3.58617 77.8519 4.16153 75.4349ZM7.32484 70.5823C7.32456 70.5819 7.32421 70.5814 7.32377 70.5808L7.32553 70.5833C7.32554 70.5833 7.32531 70.583 7.32484 70.5823ZM9.92249 80C10.9128 80 11.9031 79 11.9031 78C11.9031 75 9.92249 73 9.92249 73C9.92249 73 7.94189 75 7.94189 78C7.94189 79 8.93219 80 9.92249 80Z" fill="#B2B6C2"/>
<path d="M87.2051 28C88.3384 28 89.2564 27.0821 89.2564 25.9487H85.1538C85.1538 27.0821 86.0717 28 87.2051 28Z" fill="#767E93"/>
<path d="M93.3591 21.8463V16.718C93.3591 13.5641 91.6822 10.9333 88.7437 10.2359V9.53848C88.7437 8.68717 88.0565 8 87.2052 8C86.3539 8 85.6667 8.68717 85.6667 9.53848V10.2359C82.7283 10.9334 81.0513 13.5642 81.0513 16.7181V21.8463L79 23.8976V24.9232H95.4104V23.8976L93.3591 21.8463Z" fill="#767E93"/>
<g filter="url(#filter0_d)">
<path fill-rule="evenodd" clip-rule="evenodd" d="M111.248 28C116.771 28 121.248 23.5228 121.248 18C121.248 12.4772 116.771 8 111.248 8C108.884 8 106.712 8.82034 105 10.1919C108.163 11.3746 110.415 14.4243 110.415 17.9999C110.415 21.5756 108.163 24.6253 105 25.808C106.712 27.1796 108.884 28 111.248 28Z" fill="#767E93"/>
</g>
<path d="M87.2051 56C88.3384 56 89.2564 55.0821 89.2564 53.9487H85.1538C85.1538 55.0821 86.0717 56 87.2051 56Z" fill="#4828E8"/>
<path d="M93.3591 49.8463V44.718C93.3591 41.5641 91.6822 38.9333 88.7437 38.2359V37.5385C88.7437 36.6872 88.0565 36 87.2052 36C86.3539 36 85.6667 36.6872 85.6667 37.5385V38.2359C82.7283 38.9334 81.0513 41.5642 81.0513 44.7181V49.8463L79 51.8976V52.9232H95.4104V51.8976L93.3591 49.8463Z" fill="#4828E8"/>
<path fill-rule="evenodd" clip-rule="evenodd" d="M111.248 56C116.771 56 121.248 51.5228 121.248 46C121.248 40.4772 116.771 36 111.248 36C108.884 36 106.712 36.8203 105 38.1919C108.163 39.3746 110.415 42.4243 110.415 45.9999C110.415 49.5756 108.163 52.6253 105 53.808C106.712 55.1796 108.884 56 111.248 56Z" fill="#4828E8"/>
<path d="M32.8928 123.197C33.5995 121.601 36.1408 121.601 36.8476 123.197L38.1635 126.169C38.1809 126.209 38.2219 126.236 38.2692 126.239L41.7918 126.505C43.6428 126.644 44.4157 128.679 43.0385 129.787L40.2653 132.019C40.2319 132.046 40.2173 132.086 40.2272 132.125L41.0583 135.398C41.4774 137.049 39.4321 138.319 37.833 137.401L34.938 135.74C34.8967 135.717 34.8437 135.717 34.8024 135.74L31.9073 137.401C30.3083 138.319 28.263 137.049 28.682 135.398L29.5131 132.125C29.5231 132.086 29.5085 132.046 29.4751 132.019L26.7019 129.787C25.3247 128.679 26.0976 126.644 27.9486 126.505L31.4711 126.239C31.5185 126.236 31.5595 126.209 31.5769 126.169L32.8928 123.197Z" fill="white" fill-opacity="0.87"/>
<path fill-rule="evenodd" clip-rule="evenodd" d="M52 124C52 121.791 53.7908 120 56 120L68 120V134H66V138H68V140H56C53.7909 140 52 138.209 52 136V124ZM64 138V134H56C54.8954 134 54 134.895 54 136C54 137.105 54.8954 138 56 138H64ZM60.8947 127.789C61.5501 127.461 62 126.783 62 126C62 124.895 61.1046 124 60 124C58.8954 124 58 124.895 58 126C58 126.783 58.4499 127.461 59.1053 127.789L58 130H62L60.8947 127.789Z" fill="white" fill-opacity="0.87"/>
<path fill-rule="evenodd" clip-rule="evenodd" d="M4.9788 125.266C4.31653 126.082 2.83678 128.364 2.2159 130.972C1.43981 134.232 2.96095 136.677 3.55079 137.461C4.14062 138.245 6.06533 140 9.91477 140C13.7596 140 15.4971 138.249 16.276 137.464L16.2788 137.461C17.0563 136.677 20.0465 132.289 15.6748 127.837C12.8891 125 11.4078 122.5 10.9127 120C8.95052 121.717 6.95149 124 5.96119 128C5.59324 127.837 4.97089 126.5 4.9788 125.266ZM9.92249 136C10.9128 136 11.9031 135 11.9031 134C11.9031 131 9.92249 129 9.92249 129C9.92249 129 7.94189 131 7.94189 134C7.94189 135 8.93219 136 9.92249 136Z" fill="white" fill-opacity="0.87"/>
<path d="M87.2051 140C88.3384 140 89.2564 139.082 89.2564 137.949H85.1538C85.1538 139.082 86.0717 140 87.2051 140Z" fill="white" fill-opacity="0.87"/>
<path d="M93.3591 133.846V128.718C93.3591 125.564 91.6822 122.933 88.7437 122.236V121.538C88.7437 120.687 88.0565 120 87.2052 120C86.3539 120 85.6667 120.687 85.6667 121.538V122.236C82.7283 122.933 81.0513 125.564 81.0513 128.718V133.846L79 135.898V136.923H95.4104V135.898L93.3591 133.846Z" fill="white" fill-opacity="0.87"/>
<g filter="url(#filter1_d)">
<path fill-rule="evenodd" clip-rule="evenodd" d="M111.248 140C116.771 140 121.248 135.523 121.248 130C121.248 124.477 116.771 120 111.248 120C108.884 120 106.712 120.82 105 122.192C108.163 123.375 110.415 126.424 110.415 130C110.415 133.576 108.163 136.625 105 137.808C106.712 139.18 108.884 140 111.248 140Z" fill="white" fill-opacity="0.87"/>
</g>
<path d="M87.2051 84C88.3384 84 89.2564 83.0821 89.2564 81.9487H85.1538C85.1538 83.0821 86.0717 84 87.2051 84Z" fill="#B2B6C2"/>
<path d="M93.3591 77.8463V72.718C93.3591 69.5641 91.6822 66.9333 88.7437 66.2359V65.5385C88.7437 64.6872 88.0565 64 87.2052 64C86.3539 64 85.6667 64.6872 85.6667 65.5385V66.2359C82.7283 66.9334 81.0513 69.5642 81.0513 72.7181V77.8463L79 79.8976V80.9232H95.4104V79.8976L93.3591 77.8463Z" fill="#B2B6C2"/>
<path fill-rule="evenodd" clip-rule="evenodd" d="M111.248 84C116.771 84 121.248 79.5228 121.248 74C121.248 68.4772 116.771 64 111.248 64C108.884 64 106.712 64.8203 105 66.1919C108.163 67.3746 110.415 70.4243 110.415 73.9999C110.415 77.5756 108.163 80.6253 105 81.808C106.712 83.1796 108.884 84 111.248 84Z" fill="#B2B6C2"/>
<path fill-rule="evenodd" clip-rule="evenodd" d="M32.8928 95.1971C33.5995 93.6009 36.1408 93.601 36.8476 95.1971L38.1635 98.1692C38.1809 98.2086 38.2219 98.2357 38.2692 98.2393L41.7918 98.5045C43.6428 98.644 44.4157 100.679 43.0385 101.787L40.2653 104.019C40.2319 104.046 40.2173 104.086 40.2272 104.125L41.0583 107.398C41.4774 109.049 39.4321 110.319 37.833 109.401L34.938 107.74C34.8967 107.717 34.8437 107.717 34.8024 107.74L31.9073 109.401C30.3083 110.319 28.263 109.049 28.682 107.398L29.5131 104.125C29.5231 104.086 29.5085 104.046 29.4751 104.019L26.7019 101.787C25.3247 100.679 26.0976 98.644 27.9486 98.5045L31.4711 98.2393C31.5185 98.2357 31.5595 98.2086 31.5769 98.1692L32.8928 95.1971ZM34.797 95.7947C34.7869 95.8005 34.7698 95.8122 34.7539 95.8482L33.4379 98.8203C33.142 99.4887 32.4452 99.9501 31.64 100.011L28.1174 100.276C28.0772 100.279 28.0595 100.289 28.0494 100.297C28.0353 100.307 28.0194 100.325 28.0096 100.351C27.9997 100.377 28 100.4 28.0042 100.416C28.0072 100.427 28.0142 100.445 28.0441 100.469L30.8173 102.701C31.3857 103.158 31.6329 103.852 31.464 104.517L30.6329 107.79C30.6236 107.827 30.63 107.845 30.6348 107.855C30.6418 107.87 30.6571 107.889 30.6833 107.905C30.7095 107.922 30.7351 107.928 30.7533 107.929C30.7657 107.929 30.7871 107.928 30.8227 107.908L33.7177 106.247C34.4193 105.844 35.3211 105.844 36.0226 106.247L38.9177 107.908C38.9533 107.928 38.9746 107.929 38.9871 107.929C39.0052 107.928 39.0309 107.922 39.0571 107.905C39.0833 107.889 39.0986 107.87 39.1056 107.855C39.1104 107.845 39.1167 107.827 39.1074 107.79L38.2763 104.517C38.1075 103.852 38.3547 103.158 38.923 102.701L41.6963 100.469C41.7262 100.445 41.7332 100.427 41.7362 100.416C41.7404 100.4 41.7407 100.377 41.7308 100.351C41.721 100.325 41.7051 100.307 41.691 100.297C41.6809 100.289 41.6632 100.279 41.6229 100.276L38.1004 100.011C37.2952 99.9501 36.5984 99.4887 36.3024 98.8203L34.9865 95.8482C34.9705 95.8122 34.9535 95.8005 34.9434 95.7947C34.9282 95.786 34.9029 95.7778 34.8702 95.7778C34.8375 95.7778 34.8122 95.786 34.797 95.7947Z" fill="white" fill-opacity="0.6"/>
<path fill-rule="evenodd" clip-rule="evenodd" d="M56 92.0001C53.7908 92.0001 52 93.7909 52 96.0001V108V108C52 110.209 53.7909 112 56 112H68V110H66V106H68V104V92L56 92.0001ZM64 106H56C54.8954 106 54 106.895 54 108V108C54 109.105 54.8954 110 56 110H64V106ZM56 104C55.2714 104 54.5883 104.195 54 104.535V96.0001C54 94.8955 54.8954 94.0001 56 94.0001L66 94V104H56ZM62 98C62 98.783 61.5501 99.4609 60.8947 99.7892L62 102H58L59.1053 99.7892C58.4499 99.4609 58 98.783 58 98C58 96.8954 58.8954 96 60 96C61.1046 96 62 96.8954 62 98Z" fill="white" fill-opacity="0.6"/>
<path fill-rule="evenodd" clip-rule="evenodd" d="M6.28777 98.8495C6.1695 99.2166 6.06029 99.5997 5.96118 100C5.88369 99.9657 5.7949 99.8792 5.70309 99.7527C5.35903 99.2784 4.97255 98.2402 4.97879 97.2665C4.84229 97.4345 4.67106 97.6648 4.47977 97.9474C4.16717 98.4094 3.80101 99.0111 3.44537 99.7089C2.96283 100.656 2.49966 101.78 2.21589 102.972C1.4398 106.232 2.96095 108.677 3.55078 109.461C4.14061 110.245 6.06532 112 9.91476 112C13.7596 112 15.4971 110.249 16.276 109.464L16.2787 109.461C17.0562 108.677 20.0465 104.289 15.6748 99.837C13.6698 97.7951 12.3406 95.9278 11.5684 94.1094C11.2677 93.4013 11.0514 92.7007 10.9127 92C10.3574 92.4859 9.79927 93.0171 9.26183 93.6197C8.42001 94.5635 7.62907 95.6825 6.98005 97.0769C6.94903 97.1435 6.91834 97.2108 6.88798 97.2787C6.72335 97.647 6.56854 98.034 6.42513 98.4417C6.3781 98.5754 6.33229 98.7113 6.28777 98.8495ZM4.16152 103.435C4.31262 102.8 4.52584 102.184 4.76586 101.611C4.88154 101.691 5.00981 101.766 5.15108 101.829L7.32988 102.794L7.90257 100.481C8.40566 98.4486 9.19485 96.9383 10.1145 95.7267C11.035 97.5593 12.4118 99.3685 14.2478 101.238C15.9715 102.994 16.1296 104.553 15.9361 105.689C15.831 106.306 15.6087 106.858 15.37 107.297C15.2518 107.515 15.1346 107.695 15.036 107.831C14.9869 107.899 14.9445 107.953 14.9115 107.992C14.8951 108.012 14.8819 108.027 14.8723 108.038C14.8639 108.047 14.8594 108.052 14.8589 108.052C14.8588 108.052 14.8588 108.052 14.8588 108.052L14.8562 108.055L14.8562 108.055C14.493 108.421 14.0401 108.872 13.3093 109.259C12.5895 109.64 11.5158 110 9.91476 110C6.73839 110 5.38848 108.577 5.14876 108.258C4.71345 107.68 3.58617 105.852 4.16152 103.435ZM7.32483 98.5823C7.32456 98.5819 7.3242 98.5814 7.32376 98.5808L7.32552 98.5833C7.32553 98.5833 7.3253 98.583 7.32483 98.5823ZM9.92248 108C10.9128 108 11.9031 107 11.9031 106C11.9031 103 9.92248 101 9.92248 101C9.92248 101 7.94189 103 7.94189 106C7.94189 107 8.93218 108 9.92248 108Z" fill="white" fill-opacity="0.6"/>
<path d="M87.2051 112C88.3384 112 89.2564 111.082 89.2564 109.949H85.1538C85.1538 111.082 86.0717 112 87.2051 112Z" fill="white" fill-opacity="0.6"/>
<path d="M93.3591 105.846V100.718C93.3591 97.5641 91.6822 94.9333 88.7437 94.2359V93.5385C88.7437 92.6872 88.0565 92 87.2052 92C86.3539 92 85.6667 92.6872 85.6667 93.5385V94.2359C82.7283 94.9334 81.0513 97.5642 81.0513 100.718V105.846L79 107.898V108.923H95.4104V107.898L93.3591 105.846Z" fill="white" fill-opacity="0.6"/>
<path fill-rule="evenodd" clip-rule="evenodd" d="M111.248 112C116.771 112 121.248 107.523 121.248 102C121.248 96.4772 116.771 92 111.248 92C108.884 92 106.712 92.8203 105 94.1919C108.163 95.3746 110.415 98.4243 110.415 102C110.415 105.576 108.163 108.625 105 109.808C106.712 111.18 108.884 112 111.248 112Z" fill="white" fill-opacity="0.6"/>
<path fill-rule="evenodd" clip-rule="evenodd" d="M328.008 71C329.668 71 331.015 69.6527 331.015 67.9923C331.015 66.3399 329.676 65 328.008 65C326.343 65 325 66.3513 325 67.9923C325 69.6414 326.351 71 328.008 71ZM333.015 67.9923C333.015 70.7573 330.773 73 328.008 73C325.243 73 323 70.7419 323 67.9923C323 65.2427 325.243 63 328.008 63C330.773 63 333.015 65.2274 333.015 67.9923Z" fill="#B2B6C2"/>
<path fill-rule="evenodd" clip-rule="evenodd" d="M335.841 81.0001H320.159C320.721 78.8198 322.707 77.207 325.052 77.207H330.948C333.301 77.207 335.28 78.8257 335.841 81.0001ZM337.259 83.0001H318.741C318.328 83.0001 318 82.6726 318 82.2588C318 78.3622 321.172 75.207 325.052 75.207H330.948C334.845 75.207 338 78.3795 338 82.2588C338 82.6726 337.672 83.0001 337.259 83.0001Z" fill="#B2B6C2"/>
<path d="M287.84 78C287.218 77.9976 286.61 78.1888 286.101 78.5472C285.592 78.9055 285.207 79.4133 285 80H281V82H285C285.212 82.5758 285.596 83.0727 286.099 83.4237C286.602 83.7747 287.201 83.9628 287.815 83.9628C288.429 83.9628 289.028 83.7747 289.531 83.4237C290.034 83.0727 290.418 82.5758 290.63 82H301V80H290.65C290.444 79.4181 290.064 78.9138 289.561 78.5558C289.058 78.1979 288.457 78.0038 287.84 78ZM287.84 82C287.642 82 287.449 81.9414 287.284 81.8315C287.12 81.7216 286.992 81.5654 286.916 81.3827C286.84 81.2 286.821 80.9989 286.859 80.8049C286.898 80.611 286.993 80.4328 287.133 80.2929C287.273 80.1531 287.451 80.0578 287.645 80.0192C287.839 79.9807 288.04 80.0005 288.223 80.0761C288.405 80.1518 288.562 80.28 288.671 80.4445C288.781 80.6089 288.84 80.8022 288.84 81C288.84 81.2652 288.735 81.5196 288.547 81.7071C288.36 81.8947 288.105 82 287.84 82Z" fill="#B2B6C2"/>
<path d="M294.16 71C293.543 71.0038 292.942 71.1979 292.439 71.5558C291.936 71.9137 291.556 72.4181 291.35 73H281V75H291.35C291.558 75.5826 291.941 76.0865 292.447 76.4428C292.953 76.7991 293.556 76.9904 294.175 76.9904C294.794 76.9904 295.397 76.7991 295.903 76.4428C296.409 76.0865 296.792 75.5826 297 75H301V73H297C296.793 72.4133 296.408 71.9055 295.899 71.5472C295.39 71.1888 294.782 70.9976 294.16 71ZM294.16 75C293.962 75 293.769 74.9414 293.604 74.8315C293.44 74.7216 293.312 74.5654 293.236 74.3827C293.16 74.2 293.141 73.9989 293.179 73.8049C293.218 73.611 293.313 73.4328 293.453 73.2929C293.593 73.1531 293.771 73.0578 293.965 73.0192C294.159 72.9807 294.36 73.0005 294.543 73.0761C294.725 73.1518 294.882 73.28 294.991 73.4445C295.101 73.6089 295.16 73.8022 295.16 74C295.16 74.2652 295.055 74.5196 294.867 74.7071C294.68 74.8947 294.425 75 294.16 75Z" fill="#B2B6C2"/>
<path d="M287.84 64C287.218 63.9976 286.61 64.1888 286.101 64.5472C285.592 64.9055 285.207 65.4133 285 66H281V68H285C285.208 68.5826 285.591 69.0865 286.097 69.4428C286.603 69.7991 287.206 69.9904 287.825 69.9904C288.444 69.9904 289.047 69.7991 289.553 69.4428C290.059 69.0865 290.442 68.5826 290.65 68H301V66H290.65C290.444 65.4181 290.064 64.9137 289.561 64.5558C289.058 64.1979 288.457 64.0038 287.84 64ZM287.84 68C287.642 68 287.449 67.9414 287.284 67.8315C287.12 67.7216 286.992 67.5654 286.916 67.3827C286.84 67.2 286.821 66.9989 286.859 66.8049C286.898 66.611 286.993 66.4328 287.133 66.2929C287.273 66.1531 287.451 66.0578 287.645 66.0192C287.839 65.9807 288.04 66.0005 288.223 66.0761C288.405 66.1518 288.562 66.28 288.671 66.4445C288.781 66.6089 288.84 66.8022 288.84 67C288.84 67.2652 288.735 67.5196 288.547 67.7071C288.36 67.8947 288.105 68 287.84 68Z" fill="#B2B6C2"/>
<path fill-rule="evenodd" clip-rule="evenodd" d="M328.008 44C329.668 44 331.015 42.6527 331.015 40.9923C331.015 39.3399 329.676 38 328.008 38C326.343 38 325 39.3513 325 40.9923C325 42.6414 326.351 44 328.008 44ZM333.015 40.9923C333.015 43.7573 330.773 46 328.008 46C325.243 46 323 43.7419 323 40.9923C323 38.2427 325.243 36 328.008 36C330.773 36 333.015 38.2274 333.015 40.9923Z" fill="white" fill-opacity="0.87"/>
<path fill-rule="evenodd" clip-rule="evenodd" d="M335.841 54.0001H320.159C320.721 51.8198 322.707 50.207 325.052 50.207H330.948C333.301 50.207 335.28 51.8257 335.841 54.0001ZM337.259 56.0001H318.741C318.328 56.0001 318 55.6726 318 55.2588C318 51.3622 321.172 48.207 325.052 48.207H330.948C334.845 48.207 338 51.3795 338 55.2588C338 55.6726 337.672 56.0001 337.259 56.0001Z" fill="white" fill-opacity="0.87"/>
<path d="M287.84 50C287.218 49.9976 286.61 50.1888 286.101 50.5472C285.592 50.9055 285.207 51.4133 285 52H281V54H285C285.212 54.5758 285.596 55.0727 286.099 55.4237C286.602 55.7747 287.201 55.9628 287.815 55.9628C288.429 55.9628 289.028 55.7747 289.531 55.4237C290.034 55.0727 290.418 54.5758 290.63 54H301V52H290.65C290.444 51.4181 290.064 50.9138 289.561 50.5558C289.058 50.1979 288.457 50.0038 287.84 50ZM287.84 54C287.642 54 287.449 53.9414 287.284 53.8315C287.12 53.7216 286.992 53.5654 286.916 53.3827C286.84 53.2 286.821 52.9989 286.859 52.8049C286.898 52.611 286.993 52.4328 287.133 52.2929C287.273 52.1531 287.451 52.0578 287.645 52.0192C287.839 51.9807 288.04 52.0005 288.223 52.0761C288.405 52.1518 288.562 52.28 288.671 52.4445C288.781 52.6089 288.84 52.8022 288.84 53C288.84 53.2652 288.735 53.5196 288.547 53.7071C288.36 53.8947 288.105 54 287.84 54Z" fill="white" fill-opacity="0.87"/>
<path d="M294.16 43C293.543 43.0038 292.942 43.1979 292.439 43.5558C291.936 43.9137 291.556 44.4181 291.35 45H281V47H291.35C291.558 47.5826 291.941 48.0865 292.447 48.4428C292.953 48.7991 293.556 48.9904 294.175 48.9904C294.794 48.9904 295.397 48.7991 295.903 48.4428C296.409 48.0865 296.792 47.5826 297 47H301V45H297C296.793 44.4133 296.408 43.9055 295.899 43.5472C295.39 43.1888 294.782 42.9976 294.16 43ZM294.16 47C293.962 47 293.769 46.9414 293.604 46.8315C293.44 46.7216 293.312 46.5654 293.236 46.3827C293.16 46.2 293.141 45.9989 293.179 45.8049C293.218 45.611 293.313 45.4328 293.453 45.2929C293.593 45.1531 293.771 45.0578 293.965 45.0192C294.159 44.9807 294.36 45.0005 294.543 45.0761C294.725 45.1518 294.882 45.28 294.991 45.4445C295.101 45.6089 295.16 45.8022 295.16 46C295.16 46.2652 295.055 46.5196 294.867 46.7071C294.68 46.8947 294.425 47 294.16 47Z" fill="white" fill-opacity="0.87"/>
<path d="M287.84 36C287.218 35.9976 286.61 36.1888 286.101 36.5472C285.592 36.9055 285.207 37.4133 285 38H281V40H285C285.208 40.5826 285.591 41.0865 286.097 41.4428C286.603 41.7991 287.206 41.9904 287.825 41.9904C288.444 41.9904 289.047 41.7991 289.553 41.4428C290.059 41.0865 290.442 40.5826 290.65 40H301V38H290.65C290.444 37.4181 290.064 36.9137 289.561 36.5558C289.058 36.1979 288.457 36.0038 287.84 36ZM287.84 40C287.642 40 287.449 39.9414 287.284 39.8315C287.12 39.7216 286.992 39.5654 286.916 39.3827C286.84 39.2 286.821 38.9989 286.859 38.8049C286.898 38.611 286.993 38.4328 287.133 38.2929C287.273 38.1531 287.451 38.0578 287.645 38.0192C287.839 37.9807 288.04 38.0005 288.223 38.0761C288.405 38.1518 288.562 38.28 288.671 38.4445C288.781 38.6089 288.84 38.8022 288.84 39C288.84 39.2652 288.735 39.5196 288.547 39.7071C288.36 39.8947 288.105 40 287.84 40Z" fill="white" fill-opacity="0.87"/>
<path d="M153.67 71H151.14V67.67C151.14 67.2271 150.964 66.8023 150.651 66.4891C150.338 66.1759 149.913 66 149.47 66H147.89C147.617 66.0003 147.348 66.068 147.107 66.1971C146.867 66.3261 146.661 66.5126 146.51 66.74L143.68 71H140.33C139.446 71.0026 138.599 71.3557 137.975 71.9818C137.351 72.6079 137 73.4559 137 74.34V78.53C137 78.9673 137.086 79.4003 137.253 79.8043C137.421 80.2084 137.666 80.5754 137.975 80.8847C138.6 81.5092 139.447 81.86 140.33 81.86H153.67C154.107 81.86 154.54 81.7739 154.944 81.6065C155.348 81.4392 155.715 81.1939 156.025 80.8847C156.334 80.5754 156.579 80.2084 156.747 79.8043C156.914 79.4003 157 78.9673 157 78.53V74.34C157 73.4559 156.649 72.6079 156.025 71.9818C155.401 71.3557 154.554 71.0026 153.67 71ZM155 78.53C155 78.8827 154.86 79.221 154.61 79.4705C154.361 79.7199 154.023 79.86 153.67 79.86H144.74V73L145.33 72.11L148.07 68H149.14V73H153.67C154.024 73.0026 154.362 73.145 154.611 73.396C154.86 73.647 155 73.9863 155 74.34V78.53Z" fill="#B2B6C2"/>
<path d="M190.67 77H188.14V80.33C188.14 80.7729 187.964 81.1977 187.651 81.5109C187.338 81.8241 186.913 82 186.47 82H184.89C184.617 81.9997 184.348 81.932 184.107 81.8029C183.867 81.6739 183.661 81.4874 183.51 81.26L180.68 77H177.33C176.446 76.9974 175.599 76.6443 174.975 76.0182C174.351 75.3921 174 74.5441 174 73.66V69.47C174 69.0327 174.086 68.5997 174.253 68.1957C174.421 67.7916 174.666 67.4246 174.975 67.1153C175.6 66.4908 176.447 66.14 177.33 66.14H190.67C191.107 66.14 191.54 66.2261 191.944 66.3935C192.348 66.5608 192.715 66.8061 193.025 67.1153C193.334 67.4246 193.579 67.7916 193.747 68.1957C193.914 68.5997 194 69.0327 194 69.47V73.66C194 74.5441 193.649 75.3921 193.025 76.0182C192.401 76.6443 191.554 76.9974 190.67 77ZM192 69.47C192 69.1173 191.86 68.779 191.61 68.5295C191.361 68.2801 191.023 68.14 190.67 68.14H181.74V75L182.33 75.89L185.07 80H186.14V75H190.67C191.024 74.9974 191.362 74.855 191.611 74.604C191.86 74.353 192 74.0137 192 73.66V69.47Z" fill="#B2B6C2"/>
<path d="M225.013 67.0009C225.604 66.9908 226.19 67.1141 226.727 67.3617C227.263 67.6093 227.737 67.9747 228.113 68.4309C228.503 68.9072 228.773 69.4696 228.902 70.0714C229.03 70.6731 229.014 71.2969 228.853 71.8909C228.273 74.3809 225.783 76.9409 222.183 78.7209C221.807 78.9054 221.393 79.0014 220.973 79.0014C220.554 79.0014 220.14 78.9054 219.763 78.7209C216.203 76.9409 213.713 74.3809 213.133 71.8909C212.973 71.2969 212.956 70.6731 213.085 70.0714C213.213 69.4696 213.484 68.9072 213.873 68.4309C214.253 67.9694 214.734 67.6007 215.278 67.3529C215.822 67.1051 216.416 66.9847 217.013 67.0009C218.006 67.0076 218.964 67.3614 219.723 68.0009L221.013 69.0009L222.303 68.0009C223.062 67.3614 224.021 67.0076 225.013 67.0009ZM225.013 65.0009C223.555 64.9939 222.141 65.4962 221.013 66.4209C219.886 65.4962 218.471 64.9939 217.013 65.0009C216.121 64.9855 215.237 65.1718 214.426 65.5458C213.616 65.9198 212.9 66.4719 212.333 67.1609C211.748 67.8734 211.339 68.7136 211.14 69.6135C210.94 70.5135 210.955 71.4478 211.183 72.3409C211.913 75.4609 214.723 78.4409 218.913 80.5109C219.566 80.8328 220.285 81.0003 221.013 81.0003C221.741 81.0003 222.46 80.8328 223.113 80.5109C227.303 78.4409 230.113 75.5109 230.843 72.3409C231.072 71.4478 231.087 70.5135 230.887 69.6135C230.687 68.7136 230.278 67.8734 229.693 67.1609C229.126 66.4719 228.411 65.9198 227.6 65.5458C226.79 65.1718 225.906 64.9855 225.013 65.0009Z" fill="#B2B6C2"/>
<path d="M264 66H252C250.939 66 249.922 66.4214 249.172 67.1716C248.421 67.9217 248 68.9391 248 70V75C248 76.0609 248.421 77.0783 249.172 77.8284C249.922 78.5786 250.939 79 252 79H257.26L263.26 82V79H264C265.061 79 266.078 78.5786 266.828 77.8284C267.579 77.0783 268 76.0609 268 75V70C268 68.9391 267.579 67.9217 266.828 67.1716C266.078 66.4214 265.061 66 264 66V66ZM266 75C266 75.5304 265.789 76.0391 265.414 76.4142C265.039 76.7893 264.53 77 264 77H261.26V78.77L258.15 77.21L257.73 77H252C251.47 77 250.961 76.7893 250.586 76.4142C250.211 76.0391 250 75.5304 250 75V70C250 69.4696 250.211 68.9609 250.586 68.5858C250.961 68.2107 251.47 68 252 68H264C264.53 68 265.039 68.2107 265.414 68.5858C265.789 68.9609 266 69.4696 266 70V75Z" fill="#B2B6C2"/>
<path d="M253.06 70.7998C252.73 70.7998 252.407 70.8977 252.132 71.0813C251.858 71.2648 251.644 71.5256 251.517 71.8307C251.391 72.1359 251.358 72.4717 251.422 72.7956C251.487 73.1196 251.646 73.4171 251.879 73.6507C252.113 73.8842 252.41 74.0433 252.734 74.1077C253.058 74.1722 253.394 74.1391 253.699 74.0127C254.004 73.8863 254.265 73.6722 254.449 73.3976C254.632 73.123 254.73 72.8001 254.73 72.4698C254.73 72.2505 254.687 72.0333 254.603 71.8307C254.519 71.6281 254.396 71.444 254.241 71.2889C254.086 71.1339 253.902 71.0109 253.699 70.9269C253.497 70.843 253.279 70.7998 253.06 70.7998Z" fill="#B2B6C2"/>
<path d="M258 70.7998C257.669 70.7979 257.345 70.8941 257.069 71.0764C256.793 71.2587 256.578 71.5188 256.45 71.8238C256.322 72.1288 256.287 72.4649 256.351 72.7895C256.414 73.1141 256.572 73.4126 256.805 73.6471C257.039 73.8817 257.336 74.0417 257.66 74.107C257.985 74.1722 258.321 74.1397 258.627 74.0136C258.932 73.8875 259.194 73.6735 259.378 73.3987C259.562 73.1238 259.66 72.8006 259.66 72.4698C259.66 72.0286 259.485 71.6054 259.174 71.2925C258.863 70.9796 258.441 70.8025 258 70.7998Z" fill="#B2B6C2"/>
<path d="M263 70.7998C262.67 70.7998 262.347 70.8978 262.072 71.0813C261.798 71.2648 261.584 71.5256 261.457 71.8308C261.331 72.1359 261.298 72.4717 261.362 72.7956C261.427 73.1196 261.586 73.4171 261.819 73.6507C262.053 73.8843 262.35 74.0433 262.674 74.1077C262.998 74.1722 263.334 74.1391 263.639 74.0127C263.944 73.8863 264.205 73.6723 264.389 73.3976C264.572 73.123 264.67 72.8001 264.67 72.4698C264.671 72.2502 264.629 72.0324 264.546 71.8292C264.462 71.626 264.339 71.4413 264.184 71.286C264.029 71.1307 263.844 71.0077 263.641 70.9243C263.438 70.8408 263.22 70.7985 263 70.7998Z" fill="#B2B6C2"/>
<path d="M153.67 99H151.14V95.67C151.14 95.2271 150.964 94.8023 150.651 94.4891C150.338 94.1759 149.913 94 149.47 94H147.89C147.617 94.0003 147.348 94.068 147.107 94.1971C146.867 94.3261 146.661 94.5126 146.51 94.74L143.68 99H140.33C139.446 99.0026 138.599 99.3557 137.975 99.9818C137.351 100.608 137 101.456 137 102.34V106.53C137 106.967 137.086 107.4 137.253 107.804C137.421 108.208 137.666 108.575 137.975 108.885C138.6 109.509 139.447 109.86 140.33 109.86H153.67C154.107 109.86 154.54 109.774 154.944 109.607C155.348 109.439 155.715 109.194 156.025 108.885C156.334 108.575 156.579 108.208 156.747 107.804C156.914 107.4 157 106.967 157 106.53V102.34C157 101.456 156.649 100.608 156.025 99.9818C155.401 99.3557 154.554 99.0026 153.67 99ZM155 106.53C155 106.883 154.86 107.221 154.61 107.47C154.361 107.72 154.023 107.86 153.67 107.86H144.74V101L145.33 100.11L148.07 96H149.14V101H153.67C154.024 101.003 154.362 101.145 154.611 101.396C154.86 101.647 155 101.986 155 102.34V106.53Z" fill="white" fill-opacity="0.6"/>
<path d="M190.67 105H188.14V108.33C188.14 108.773 187.964 109.198 187.651 109.511C187.338 109.824 186.913 110 186.47 110H184.89C184.617 110 184.348 109.932 184.107 109.803C183.867 109.674 183.661 109.487 183.51 109.26L180.68 105H177.33C176.446 104.997 175.599 104.644 174.975 104.018C174.351 103.392 174 102.544 174 101.66V97.47C174 97.0327 174.086 96.5997 174.253 96.1957C174.421 95.7916 174.666 95.4246 174.975 95.1153C175.6 94.4908 176.447 94.14 177.33 94.14H190.67C191.107 94.14 191.54 94.2261 191.944 94.3935C192.348 94.5608 192.715 94.8061 193.025 95.1153C193.334 95.4246 193.579 95.7916 193.747 96.1957C193.914 96.5997 194 97.0327 194 97.47V101.66C194 102.544 193.649 103.392 193.025 104.018C192.401 104.644 191.554 104.997 190.67 105ZM192 97.47C192 97.1173 191.86 96.779 191.61 96.5295C191.361 96.2801 191.023 96.14 190.67 96.14H181.74V103L182.33 103.89L185.07 108H186.14V103H190.67C191.024 102.997 191.362 102.855 191.611 102.604C191.86 102.353 192 102.014 192 101.66V97.47Z" fill="white" fill-opacity="0.6"/>
<path d="M225.013 96.0009C225.604 95.9908 226.19 96.1141 226.727 96.3617C227.263 96.6093 227.737 96.9747 228.113 97.4309C228.503 97.9072 228.773 98.4696 228.902 99.0714C229.03 99.6731 229.014 100.297 228.853 100.891C228.273 103.381 225.783 105.941 222.183 107.721C221.807 107.905 221.393 108.001 220.973 108.001C220.554 108.001 220.14 107.905 219.763 107.721C216.203 105.941 213.713 103.381 213.133 100.891C212.973 100.297 212.956 99.6731 213.085 99.0714C213.213 98.4696 213.484 97.9072 213.873 97.4309C214.253 96.9694 214.734 96.6007 215.278 96.3529C215.822 96.1051 216.416 95.9847 217.013 96.0009C218.006 96.0076 218.964 96.3614 219.723 97.0009L221.013 98.0009L222.303 97.0009C223.062 96.3614 224.021 96.0076 225.013 96.0009ZM225.013 94.0009C223.555 93.9939 222.141 94.4962 221.013 95.4209C219.886 94.4962 218.471 93.9939 217.013 94.0009C216.121 93.9855 215.237 94.1718 214.426 94.5458C213.616 94.9198 212.9 95.4719 212.333 96.1609C211.748 96.8734 211.339 97.7136 211.14 98.6135C210.94 99.5135 210.955 100.448 211.183 101.341C211.913 104.461 214.723 107.441 218.913 109.511C219.566 109.833 220.285 110 221.013 110C221.741 110 222.46 109.833 223.113 109.511C227.303 107.441 230.113 104.511 230.843 101.341C231.072 100.448 231.087 99.5135 230.887 98.6135C230.687 97.7136 230.278 96.8734 229.693 96.1609C229.126 95.4719 228.411 94.9198 227.6 94.5458C226.79 94.1718 225.906 93.9855 225.013 94.0009Z" fill="white" fill-opacity="0.6"/>
<path d="M264 94H252C250.939 94 249.922 94.4214 249.172 95.1716C248.421 95.9217 248 96.9391 248 98V103C248 104.061 248.421 105.078 249.172 105.828C249.922 106.579 250.939 107 252 107H257.26L263.26 110V107H264C265.061 107 266.078 106.579 266.828 105.828C267.579 105.078 268 104.061 268 103V98C268 96.9391 267.579 95.9217 266.828 95.1716C266.078 94.4214 265.061 94 264 94V94ZM266 103C266 103.53 265.789 104.039 265.414 104.414C265.039 104.789 264.53 105 264 105H261.26V106.77L258.15 105.21L257.73 105H252C251.47 105 250.961 104.789 250.586 104.414C250.211 104.039 250 103.53 250 103V98C250 97.4696 250.211 96.9609 250.586 96.5858C250.961 96.2107 251.47 96 252 96H264C264.53 96 265.039 96.2107 265.414 96.5858C265.789 96.9609 266 97.4696 266 98V103Z" fill="white" fill-opacity="0.6"/>
<path d="M253.06 98.7998C252.73 98.7998 252.407 98.8977 252.132 99.0813C251.858 99.2648 251.644 99.5256 251.517 99.8307C251.391 100.136 251.358 100.472 251.422 100.796C251.487 101.12 251.646 101.417 251.879 101.651C252.113 101.884 252.41 102.043 252.734 102.108C253.058 102.172 253.394 102.139 253.699 102.013C254.004 101.886 254.265 101.672 254.449 101.398C254.632 101.123 254.73 100.8 254.73 100.47C254.73 100.25 254.687 100.033 254.603 99.8307C254.519 99.6281 254.396 99.444 254.241 99.2889C254.086 99.1339 253.902 99.0109 253.699 98.9269C253.497 98.843 253.279 98.7998 253.06 98.7998Z" fill="white" fill-opacity="0.6"/>
<path d="M258 98.7998C257.669 98.7979 257.345 98.8941 257.069 99.0764C256.793 99.2587 256.578 99.5188 256.45 99.8238C256.322 100.129 256.287 100.465 256.351 100.789C256.414 101.114 256.572 101.413 256.805 101.647C257.039 101.882 257.336 102.042 257.66 102.107C257.985 102.172 258.321 102.14 258.627 102.014C258.932 101.888 259.194 101.674 259.378 101.399C259.562 101.124 259.66 100.801 259.66 100.47C259.66 100.029 259.485 99.6054 259.174 99.2925C258.863 98.9796 258.441 98.8025 258 98.7998Z" fill="white" fill-opacity="0.6"/>
<path d="M263 98.7998C262.67 98.7998 262.347 98.8978 262.072 99.0813C261.798 99.2648 261.584 99.5256 261.457 99.8308C261.331 100.136 261.298 100.472 261.362 100.796C261.427 101.12 261.586 101.417 261.819 101.651C262.053 101.884 262.35 102.043 262.674 102.108C262.998 102.172 263.334 102.139 263.639 102.013C263.944 101.886 264.205 101.672 264.389 101.398C264.572 101.123 264.67 100.8 264.67 100.47C264.671 100.25 264.629 100.032 264.546 99.8292C264.462 99.626 264.339 99.4413 264.184 99.286C264.029 99.1307 263.844 99.0077 263.641 98.9243C263.438 98.8408 263.22 98.7985 263 98.7998Z" fill="white" fill-opacity="0.6"/>
<path d="M153.67 43H151.14V39.67C151.14 39.2271 150.964 38.8023 150.651 38.4891C150.338 38.1759 149.913 38 149.47 38H147.89C147.617 38.0003 147.348 38.068 147.107 38.1971C146.867 38.3261 146.661 38.5126 146.51 38.74L143.68 43H140.33C139.446 43.0026 138.599 43.3557 137.975 43.9818C137.351 44.6079 137 45.4559 137 46.34V50.53C137 50.9673 137.086 51.4003 137.253 51.8043C137.421 52.2084 137.666 52.5754 137.975 52.8847C138.6 53.5092 139.447 53.86 140.33 53.86H153.67C154.107 53.86 154.54 53.7739 154.944 53.6065C155.348 53.4392 155.715 53.1939 156.025 52.8847C156.334 52.5754 156.579 52.2084 156.747 51.8043C156.914 51.4003 157 50.9673 157 50.53V46.34C157 45.4559 156.649 44.6079 156.025 43.9818C155.401 43.3557 154.554 43.0026 153.67 43ZM155 50.53C155 50.8827 154.86 51.221 154.61 51.4705C154.361 51.7199 154.023 51.86 153.67 51.86H144.74V45L145.33 44.11L148.07 40H149.14V45H153.67C154.024 45.0026 154.362 45.145 154.611 45.396C154.86 45.647 155 45.9863 155 46.34V50.53Z" fill="#28C5E8"/>
<path d="M190.67 49H188.14V52.33C188.14 52.7729 187.964 53.1977 187.651 53.5109C187.338 53.8241 186.913 54 186.47 54H184.89C184.617 53.9997 184.348 53.932 184.107 53.8029C183.867 53.6739 183.661 53.4874 183.51 53.26L180.68 49H177.33C176.446 48.9974 175.599 48.6443 174.975 48.0182C174.351 47.3921 174 46.5441 174 45.66V41.47C174 41.0327 174.086 40.5997 174.253 40.1957C174.421 39.7916 174.666 39.4246 174.975 39.1153C175.6 38.4908 176.447 38.14 177.33 38.14H190.67C191.107 38.14 191.54 38.2261 191.944 38.3935C192.348 38.5608 192.715 38.8061 193.025 39.1153C193.334 39.4246 193.579 39.7916 193.747 40.1957C193.914 40.5997 194 41.0327 194 41.47V45.66C194 46.5441 193.649 47.3921 193.025 48.0182C192.401 48.6443 191.554 48.9974 190.67 49ZM192 41.47C192 41.1173 191.86 40.779 191.61 40.5295C191.361 40.2801 191.023 40.14 190.67 40.14H181.74V47L182.33 47.89L185.07 52H186.14V47H190.67C191.024 46.9974 191.362 46.855 191.611 46.604C191.86 46.353 192 46.0137 192 45.66V41.47Z" fill="#E85D5D"/>
<path d="M264 38H252C250.939 38 249.922 38.4214 249.172 39.1716C248.421 39.9217 248 40.9391 248 42V47C248 48.0609 248.421 49.0783 249.172 49.8284C249.922 50.5786 250.939 51 252 51H257.26L263.26 54V51H264C265.061 51 266.078 50.5786 266.828 49.8284C267.579 49.0783 268 48.0609 268 47V42C268 40.9391 267.579 39.9217 266.828 39.1716C266.078 38.4214 265.061 38 264 38V38ZM266 47C266 47.5304 265.789 48.0391 265.414 48.4142C265.039 48.7893 264.53 49 264 49H261.26V50.77L258.15 49.21L257.73 49H252C251.47 49 250.961 48.7893 250.586 48.4142C250.211 48.0391 250 47.5304 250 47V42C250 41.4696 250.211 40.9609 250.586 40.5858C250.961 40.2107 251.47 40 252 40H264C264.53 40 265.039 40.2107 265.414 40.5858C265.789 40.9609 266 41.4696 266 42V47Z" fill="#B2B6C2"/>
<path d="M253.06 42.7998C252.73 42.7998 252.407 42.8977 252.132 43.0813C251.858 43.2648 251.644 43.5256 251.517 43.8307C251.391 44.1359 251.358 44.4717 251.422 44.7956C251.487 45.1196 251.646 45.4171 251.879 45.6507C252.113 45.8842 252.41 46.0433 252.734 46.1077C253.058 46.1722 253.394 46.1391 253.699 46.0127C254.004 45.8863 254.265 45.6722 254.449 45.3976C254.632 45.123 254.73 44.8001 254.73 44.4698C254.73 44.2505 254.687 44.0333 254.603 43.8307C254.519 43.6281 254.396 43.444 254.241 43.2889C254.086 43.1339 253.902 43.0109 253.699 42.9269C253.497 42.843 253.279 42.7998 253.06 42.7998Z" fill="#B2B6C2"/>
<path d="M258 42.7998C257.669 42.7979 257.345 42.8941 257.069 43.0764C256.793 43.2587 256.578 43.5188 256.45 43.8238C256.322 44.1288 256.287 44.4649 256.351 44.7895C256.414 45.1141 256.572 45.4126 256.805 45.6471C257.039 45.8817 257.336 46.0417 257.66 46.107C257.985 46.1722 258.321 46.1397 258.627 46.0136C258.932 45.8875 259.194 45.6735 259.378 45.3987C259.562 45.1238 259.66 44.8006 259.66 44.4698C259.66 44.0286 259.485 43.6054 259.174 43.2925C258.863 42.9796 258.441 42.8025 258 42.7998Z" fill="#B2B6C2"/>
<path d="M263 42.7998C262.67 42.7998 262.347 42.8978 262.072 43.0813C261.798 43.2648 261.584 43.5256 261.457 43.8308C261.331 44.1359 261.298 44.4717 261.362 44.7956C261.427 45.1196 261.586 45.4171 261.819 45.6507C262.053 45.8843 262.35 46.0433 262.674 46.1077C262.998 46.1722 263.334 46.1391 263.639 46.0127C263.944 45.8863 264.205 45.6723 264.389 45.3976C264.572 45.123 264.67 44.8001 264.67 44.4698C264.671 44.2502 264.629 44.0324 264.546 43.8292C264.462 43.626 264.339 43.4413 264.184 43.286C264.029 43.1307 263.844 43.0077 263.641 42.9243C263.438 42.8408 263.22 42.7985 263 42.7998Z" fill="#B2B6C2"/>
<path d="M380.434 22.1164V23.9734H379.316V26.3222H380.434V28H383.231V26.3222H384.461V23.9734H383.231V22.1363C386.474 21.5055 389 18.6059 389 15.1326C389 11.1997 385.791 8 381.858 8C377.925 8 374.739 11.1996 374.739 15.1326C374.739 18.5683 377.191 21.444 380.434 22.1164ZM381.849 10.7964C384.24 10.7964 386.185 12.7417 386.185 15.1327C386.185 17.5239 384.24 19.4692 381.849 19.4692C379.458 19.4692 377.512 17.5239 377.512 15.1327C377.512 12.7416 379.458 10.7964 381.849 10.7964Z" fill="#F849EC"/>
<mask id="mask0" mask-type="alpha" maskUnits="userSpaceOnUse" x="345" y="8" width="20" height="20">
<rect x="345" y="8" width="20" height="20" fill="#346BFA"/>
</mask>
<g mask="url(#mask0)">
<path d="M347.615 14.7877C344.68 17.7386 344.687 22.5196 347.638 25.454C350.589 28.3884 355.387 28.3854 358.322 25.4345C360.914 22.8272 361.176 18.7591 359.212 15.8672L361.548 13.5182L361.645 14.7934L364.114 14.5716L363.652 9.28049L358.28 8.75132L358.051 11.2379L359.49 11.3911L357.097 13.7975C354.16 11.8833 350.177 12.2112 347.615 14.7877ZM356.206 23.3308C354.422 25.1249 351.511 25.1331 349.717 23.349C347.923 21.565 347.915 18.6541 349.699 16.86C351.483 15.0659 354.394 15.0577 356.188 16.8418C357.982 18.6258 357.99 21.5367 356.206 23.3308Z" fill="#346BFA"/>
</g>
<path d="M225.013 38.0009C223.555 37.9939 222.141 38.4962 221.013 39.4209C219.886 38.4962 218.471 37.9939 217.013 38.0009C216.121 37.9855 215.237 38.1718 214.426 38.5458C213.616 38.9198 212.9 39.4719 212.333 40.1609C211.748 40.8734 211.339 41.7136 211.14 42.6135C210.94 43.5135 210.955 44.4478 211.183 45.3409C211.913 48.4609 214.723 51.4409 218.913 53.5109C219.566 53.8328 220.285 54.0003 221.013 54.0003C221.741 54.0003 222.46 53.8328 223.113 53.5109C227.303 51.4409 230.113 48.5109 230.843 45.3409C231.072 44.4478 231.087 43.5135 230.887 42.6135C230.687 41.7136 230.278 40.8734 229.693 40.1609C229.126 39.4719 228.411 38.9198 227.6 38.5458C226.79 38.1718 225.906 37.9855 225.013 38.0009Z" fill="#F21566"/>
<defs>
<filter id="filter0_d" x="97" y="0" width="32.2484" height="36" filterUnits="userSpaceOnUse" color-interpolation-filters="sRGB">
<feFlood flood-opacity="0" result="BackgroundImageFix"/>
<feColorMatrix in="SourceAlpha" type="matrix" values="0 0 0 0 0 0 0 0 0 0 0 0 0 0 0 0 0 0 127 0"/>
<feOffset/>
<feGaussianBlur stdDeviation="4"/>
<feColorMatrix type="matrix" values="0 0 0 0 0.94 0 0 0 0 0.82 0 0 0 0 0.46 0 0 0 0.2 0"/>
<feBlend mode="normal" in2="BackgroundImageFix" result="effect1_dropShadow"/>
<feBlend mode="normal" in="SourceGraphic" in2="effect1_dropShadow" result="shape"/>
</filter>
<filter id="filter1_d" x="97" y="112" width="32.2484" height="36" filterUnits="userSpaceOnUse" color-interpolation-filters="sRGB">
<feFlood flood-opacity="0" result="BackgroundImageFix"/>
<feColorMatrix in="SourceAlpha" type="matrix" values="0 0 0 0 0 0 0 0 0 0 0 0 0 0 0 0 0 0 127 0"/>
<feOffset/>
<feGaussianBlur stdDeviation="4"/>
<feColorMatrix type="matrix" values="0 0 0 0 0.94 0 0 0 0 0.82 0 0 0 0 0.46 0 0 0 0.2 0"/>
<feBlend mode="normal" in2="BackgroundImageFix" result="effect1_dropShadow"/>
<feBlend mode="normal" in="SourceGraphic" in2="effect1_dropShadow" result="shape"/>
</filter>
</defs>
</svg>
