<svg width="70" height="48" viewBox="0 0 70 48" fill="none" xmlns="http://www.w3.org/2000/svg">
<path fill-rule="evenodd" clip-rule="evenodd" d="M32.8928 3.19714C33.5995 1.60095 36.1408 1.60096 36.8476 3.19714L38.1635 6.16924C38.1809 6.20856 38.2219 6.2357 38.2692 6.23926L41.7918 6.50455C43.6428 6.64395 44.4157 8.67881 43.0385 9.78701L40.2653 12.0186C40.2319 12.0455 40.2173 12.0863 40.2272 12.1254L41.0583 15.3984C41.4774 17.0487 39.4321 18.3188 37.833 17.4013L34.938 15.7402C34.8967 15.7165 34.8437 15.7165 34.8024 15.7402L31.9073 17.4013C30.3083 18.3188 28.263 17.0487 28.682 15.3984L29.5131 12.1254C29.5231 12.0863 29.5085 12.0455 29.4751 12.0186L26.7019 9.78701C25.3247 8.67881 26.0976 6.64395 27.9486 6.50455L31.4711 6.23926C31.5185 6.2357 31.5595 6.20856 31.5769 6.16924L32.8928 3.19714ZM34.797 3.79474C34.7869 3.80055 34.7698 3.81217 34.7539 3.8482L33.4379 6.8203C33.142 7.4887 32.4452 7.95005 31.64 8.01069L28.1174 8.27598C28.0772 8.27901 28.0595 8.28936 28.0494 8.29676C28.0353 8.30707 28.0194 8.32524 28.0096 8.35115C27.9997 8.37707 28 8.40008 28.0042 8.41587C28.0072 8.42721 28.0142 8.44498 28.0441 8.46906L30.8173 10.7007C31.3857 11.158 31.6329 11.8521 31.464 12.5169L30.6329 15.7899C30.6236 15.8266 30.63 15.8447 30.6348 15.855C30.6418 15.8698 30.6571 15.8891 30.6833 15.9054C30.7095 15.9217 30.7351 15.9278 30.7533 15.9285C30.7657 15.929 30.7871 15.9281 30.8227 15.9077L33.7177 14.2466C34.4193 13.844 35.3211 13.844 36.0226 14.2466L38.9177 15.9077C38.9533 15.9281 38.9746 15.929 38.9871 15.9285C39.0052 15.9278 39.0309 15.9217 39.0571 15.9054C39.0833 15.8891 39.0986 15.8698 39.1056 15.855C39.1104 15.8447 39.1167 15.8266 39.1074 15.7899L38.2763 12.5169C38.1075 11.8521 38.3547 11.158 38.923 10.7007L41.6963 8.46906C41.7262 8.44498 41.7332 8.42721 41.7362 8.41587C41.7404 8.40008 41.7407 8.37707 41.7308 8.35115C41.721 8.32524 41.7051 8.30707 41.691 8.29676C41.6809 8.28936 41.6632 8.27901 41.6229 8.27598L38.1004 8.01069C37.2952 7.95005 36.5984 7.4887 36.3024 6.8203L34.9865 3.8482C34.9705 3.81217 34.9535 3.80055 34.9434 3.79474C34.9282 3.78605 34.9029 3.77778 34.8702 3.77778C34.8375 3.77778 34.8122 3.78605 34.797 3.79474Z" fill="#767E93"/>
<path d="M32.8928 31.1971C33.5995 29.6009 36.1408 29.601 36.8476 31.1971L38.1635 34.1692C38.1809 34.2086 38.2219 34.2357 38.2692 34.2393L41.7918 34.5045C43.6428 34.644 44.4157 36.6788 43.0385 37.787L40.2653 40.0186C40.2319 40.0455 40.2173 40.0863 40.2272 40.1254L41.0583 43.3984C41.4774 45.0487 39.4321 46.3188 37.833 45.4013L34.938 43.7402C34.8967 43.7165 34.8437 43.7165 34.8024 43.7402L31.9073 45.4013C30.3083 46.3188 28.263 45.0487 28.682 43.3984L29.5131 40.1254C29.5231 40.0863 29.5085 40.0455 29.4751 40.0186L26.7019 37.787C25.3247 36.6788 26.0976 34.644 27.9486 34.5045L31.4711 34.2393C31.5185 34.2357 31.5595 34.2086 31.5769 34.1692L32.8928 31.1971Z" fill="#4828E8"/>
<path fill-rule="evenodd" clip-rule="evenodd" d="M56 5.43594e-05C53.7908 6.4373e-05 52 1.79092 52 4.00005V16V16.0001C52 18.2092 53.7909 20 56 20H68V18H66V14H68V12V0L56 5.43594e-05ZM64 14H56C54.8954 14 54 14.8954 54 16V16.0001C54 17.1046 54.8954 18 56 18H64V14ZM56 12C55.2714 12 54.5883 12.1948 54 12.5351V4.00005C54 2.89549 54.8954 2.00006 56 2.00005L66 2.00001V12H56ZM62 6C62 6.78298 61.5501 7.46087 60.8947 7.78923L62 9.99993H58L59.1053 7.78923C58.4499 7.46087 58 6.78298 58 6C58 4.89543 58.8954 4 60 4C61.1046 4 62 4.89543 62 6Z" fill="#767E93"/>
<path fill-rule="evenodd" clip-rule="evenodd" d="M52 32.0001C52 29.7909 53.7908 28.0001 56 28.0001L68 28V42H66V46H68V48H56C53.7909 48 52 46.2092 52 44.0001V32.0001ZM64 46V42H56C54.8954 42 54 42.8954 54 44C54 45.1045 54.8954 46 56 46H64ZM60.8947 35.7892C61.5501 35.4609 62 34.783 62 34C62 32.8954 61.1046 32 60 32C58.8954 32 58 32.8954 58 34C58 34.783 58.4499 35.4609 59.1053 35.7892L58 37.9999H62L60.8947 35.7892Z" fill="#4828E8"/>
<path fill-rule="evenodd" clip-rule="evenodd" d="M4.9788 33.2665C4.31653 34.0815 2.83678 36.3636 2.2159 38.9718C1.43981 42.232 2.96095 44.6771 3.55079 45.4608C4.14062 46.2445 6.06533 48 9.91477 48C13.7596 48 15.4971 46.2487 16.276 45.4636L16.2788 45.4608C17.0563 44.6771 20.0465 40.2892 15.6748 35.837C12.8891 33 11.4078 30.5 10.9127 28C8.95052 29.7172 6.95149 32 5.96119 36C5.59324 35.837 4.97089 34.5 4.9788 33.2665ZM9.92249 44C10.9128 44 11.9031 43 11.9031 42C11.9031 39 9.92249 37 9.92249 37C9.92249 37 7.94189 39 7.94189 42C7.94189 43 8.93219 44 9.92249 44Z" fill="#4828E8"/>
<path fill-rule="evenodd" clip-rule="evenodd" d="M6.28777 6.84951C6.16951 7.21658 6.0603 7.59969 5.96119 8C5.88369 7.96567 5.79491 7.87925 5.7031 7.75269C5.35904 7.27837 4.97256 6.24018 4.9788 5.26646C4.8423 5.43445 4.67107 5.66477 4.47978 5.94742C4.16718 6.40936 3.80102 7.01107 3.44538 7.70894C2.96284 8.65583 2.49967 9.77976 2.2159 10.9718C1.43981 14.232 2.96095 16.6771 3.55079 17.4608C4.14062 18.2445 6.06533 20 9.91477 20C13.7596 20 15.4971 18.2487 16.276 17.4636L16.2788 17.4608C17.0563 16.6771 20.0465 12.2892 15.6748 7.83699C13.6698 5.79511 12.3406 3.92779 11.5684 2.1094C11.2677 1.40132 11.0515 0.700663 10.9127 0C10.3575 0.48591 9.79928 1.01711 9.26184 1.61969C8.42002 2.56354 7.62908 3.68251 6.98006 5.07689C6.94904 5.14353 6.91835 5.21079 6.88799 5.2787C6.72336 5.64696 6.56854 6.03404 6.42514 6.44169C6.37811 6.57539 6.3323 6.71131 6.28777 6.84951ZM4.16153 11.4349C4.31263 10.8002 4.52585 10.1835 4.76587 9.61078C4.88155 9.6914 5.00982 9.766 5.15109 9.82859L7.32989 10.7938L7.90258 8.48064C8.40567 6.44857 9.19486 4.93829 10.1146 3.72669C11.035 5.55933 12.4118 7.3685 14.2478 9.23825C15.9715 10.9937 16.1296 12.5526 15.9361 13.6888C15.8311 14.3058 15.6087 14.8582 15.37 15.2973C15.2518 15.5149 15.1346 15.6951 15.036 15.8311C14.9869 15.8989 14.9445 15.9527 14.9115 15.9924C14.8951 16.012 14.8819 16.0271 14.8723 16.0377C14.8639 16.0471 14.8594 16.0518 14.8589 16.0523C14.8588 16.0523 14.8588 16.0524 14.8588 16.0523L14.8562 16.055L14.8562 16.055C14.493 16.4211 14.0401 16.8717 13.3093 17.2586C12.5895 17.6397 11.5158 18 9.91477 18C6.7384 18 5.38849 16.5766 5.14877 16.2581C4.71345 15.6797 3.58617 13.8519 4.16153 11.4349ZM7.32484 6.58228C7.32456 6.58188 7.32421 6.58137 7.32377 6.58076L7.32553 6.58332C7.32554 6.58332 7.32531 6.58297 7.32484 6.58228ZM9.92249 16C10.9128 16 11.9031 15 11.9031 14C11.9031 11 9.92249 9 9.92249 9C9.92249 9 7.94189 11 7.94189 14C7.94189 15 8.93219 16 9.92249 16Z" fill="#767E93"/>
</svg>
